<?xml version="1.0" standalone="no"?>
<!DOCTYPE svg PUBLIC "-//W3C//DTD SVG 20010904//EN"
 "http://www.w3.org/TR/2001/REC-SVG-20010904/DTD/svg10.dtd">
<svg version="1.0" xmlns="http://www.w3.org/2000/svg"
 width="500.000000pt" height="500.000000pt" viewBox="0 0 500.000000 500.000000"
 preserveAspectRatio="xMidYMid meet">

<g transform="translate(0.000000,500.000000) scale(0.100000,-0.100000)"
fill="#000000" stroke="none">
<path d="M1106 4978 c10 -33 52 -105 95 -163 78 -106 259 -255 308 -255 12 0
21 -4 21 -9 0 -14 117 -57 204 -75 389 -80 789 115 970 472 25 50 25 52 6 52
-13 0 -27 -14 -41 -42 -110 -216 -308 -375 -549 -440 -118 -32 -300 -31 -415
1 -44 13 -92 25 -107 28 -16 3 -28 9 -28 14 0 5 -6 9 -13 9 -30 0 -197 122
-263 192 -67 70 -133 167 -149 217 -4 12 -15 21 -26 21 -16 0 -19 -4 -13 -22z"/>
<path d="M3133 4983 c-108 -56 -173 -96 -166 -103 19 -17 315 -211 318 -208 2
2 10 62 19 133 9 72 19 144 22 161 l6 31 -85 1 c-56 0 -95 -5 -114 -15z m7
-33 c0 -5 -4 -10 -10 -10 -5 0 -10 5 -10 10 0 6 5 10 10 10 6 0 10 -4 10 -10z
m60 0 c0 -5 -4 -10 -10 -10 -5 0 -10 5 -10 10 0 6 5 10 10 10 6 0 10 -4 10
-10z m80 0 c0 -5 -4 -10 -10 -10 -5 0 -10 5 -10 10 0 6 5 10 10 10 6 0 10 -4
10 -10z m-120 -60 c0 -5 -4 -10 -10 -10 -5 0 -10 5 -10 10 0 6 5 10 10 10 6 0
10 -4 10 -10z m80 0 c0 -5 -4 -10 -10 -10 -5 0 -10 5 -10 10 0 6 5 10 10 10 6
0 10 -4 10 -10z m-35 -50 c3 -5 -1 -10 -9 -10 -9 0 -16 5 -16 10 0 6 4 10 9
10 6 0 13 -4 16 -10z m62 -12 c-3 -8 -6 -5 -6 6 -1 11 2 17 5 13 3 -3 4 -12 1
-19z"/>
<path d="M4968 4876 c-31 -64 -34 -76 -15 -76 21 0 49 61 45 99 l-3 33 -27
-56z"/>
<path d="M321 4832 c-14 -27 8 -55 40 -50 19 2 24 9 24 33 0 25 -4 31 -27 33
-18 2 -30 -3 -37 -16z"/>
<path d="M4694 4806 c-12 -31 0 -51 31 -51 27 0 30 3 30 30 0 25 -4 30 -28 33
-17 2 -29 -2 -33 -12z"/>
<path d="M2235 4681 c-9 -28 5 -51 30 -51 29 0 48 24 40 50 -9 27 -61 28 -70
1z"/>
<path d="M3564 4686 c-10 -27 1 -51 26 -54 31 -5 53 23 39 49 -12 22 -57 25
-65 5z"/>
<path d="M4458 4073 c-296 -296 -538 -543 -538 -548 0 -6 20 -31 45 -55 42
-41 45 -48 45 -95 0 -88 57 -145 145 -145 l50 0 397 -397 c325 -325 398 -393
398 -373 0 20 -82 108 -379 404 l-379 379 25 33 c35 47 47 105 29 147 -43 104
-159 134 -244 62 l-29 -24 -26 27 c-15 16 -27 32 -27 38 0 5 232 241 516 525
409 409 515 520 512 538 -2 17 -104 -80 -540 -516z"/>
<path d="M713 4593 c-22 -8 -16 -61 7 -68 39 -12 66 35 38 63 -13 13 -24 14
-45 5z"/>
<path d="M3119 4523 c-1 -5 -2 -21 -3 -38 -1 -27 -4 -30 -38 -33 -54 -5 -52
-32 2 -32 39 0 40 -1 40 -35 0 -24 5 -35 15 -35 10 0 15 11 15 35 0 33 2 35
35 35 24 0 35 5 35 15 0 10 -11 15 -35 15 -34 0 -35 1 -35 40 0 29 -4 40 -15
40 -8 0 -16 -3 -16 -7z"/>
<path d="M575 4450 c-8 -26 11 -50 40 -50 25 0 39 23 30 51 -9 27 -61 26 -70
-1z"/>
<path d="M457 4344 c-14 -14 -7 -53 12 -63 26 -14 54 8 49 40 -2 17 -10 25
-28 27 -14 2 -29 0 -33 -4z"/>
<path d="M1561 4125 c-18 -8 -48 -27 -67 -43 -18 -15 -47 -38 -65 -51 -152
-117 -60 -361 136 -361 41 0 183 72 222 112 87 90 82 224 -10 305 -59 52 -148
67 -216 38z m170 -25 c58 -30 99 -99 99 -166 0 -65 -10 -92 -50 -138 -37 -42
-71 -52 -46 -13 22 33 29 97 17 145 -23 83 -110 151 -196 152 l-40 1 35 19
c48 26 129 26 181 0z"/>
<path d="M2452 4068 c-17 -17 -15 -36 6 -47 13 -7 23 -6 30 1 17 17 15 45 -4
52 -20 8 -18 8 -32 -6z"/>
<path d="M3779 4064 c-17 -21 0 -48 34 -52 21 -3 28 2 33 22 3 14 3 30 -1 35
-10 16 -51 13 -66 -5z"/>
<path d="M906 3954 c-19 -18 -19 -20 -6 -45 12 -21 40 -25 58 -7 18 18 14 46
-7 58 -25 13 -27 13 -45 -6z"/>
<path d="M2452 3923 c-13 -26 -4 -43 23 -43 27 0 40 26 24 46 -16 19 -37 17
-47 -3z"/>
<path d="M4942 3903 c2 -9 15 -20 31 -24 22 -6 27 -4 27 11 0 10 -10 20 -22
24 -35 9 -40 7 -36 -11z"/>
<path d="M4832 3844 c2 -11 29 -25 83 -40 44 -13 81 -24 83 -24 1 0 2 8 2 18
0 15 -17 24 -74 40 -89 26 -98 27 -94 6z"/>
<path d="M3372 3798 c-9 -11 4 -29 63 -88 62 -61 75 -71 81 -56 10 26 -127
163 -144 144z"/>
<path d="M2460 3785 c-18 -21 -5 -47 22 -43 26 3 37 36 16 49 -18 12 -24 11
-38 -6z"/>
<path d="M4725 3789 c-11 -16 -5 -19 121 -55 65 -19 126 -36 136 -40 13 -4 18
0 18 13 0 16 -23 26 -128 56 -145 42 -139 41 -147 26z"/>
<path d="M455 3771 c-35 -15 -57 -49 -62 -95 l-6 -46 106 -105 c104 -103 107
-105 152 -105 40 0 52 5 76 31 23 24 29 41 29 74 0 45 -26 89 -59 100 -10 3
-21 14 -24 25 -3 11 -18 27 -34 37 -16 9 -37 29 -46 45 -24 42 -82 59 -132 39z
m110 -38 c12 -16 10 -19 -22 -30 -49 -18 -61 -29 -75 -74 -13 -45 -21 -48 -42
-17 -19 27 -21 88 -3 110 33 41 115 48 142 11z m25 -72 c0 -39 -41 -81 -80
-81 -26 0 -30 4 -30 26 0 34 50 84 84 84 22 0 26 -5 26 -29z m49 0 c8 -15 7
-20 -5 -25 -27 -10 -31 -7 -26 19 5 30 17 32 31 6z m21 -67 c0 -39 -18 -64
-56 -80 -44 -18 -58 -10 -50 29 7 35 23 56 51 67 39 16 55 12 55 -16z m68 -32
c30 -87 -59 -160 -135 -113 -40 25 -42 41 -7 41 35 0 94 59 94 94 0 23 3 25
19 17 10 -6 23 -23 29 -39z m-195 -22 c-6 -23 -14 -25 -31 -8 -18 18 -14 28
12 28 19 0 23 -4 19 -20z"/>
<path d="M2054 3586 c-12 -31 0 -51 31 -51 27 0 30 3 30 30 0 25 -4 30 -28 33
-17 2 -29 -2 -33 -12z"/>
<path d="M2945 3540 c-4 -12 -1 -27 5 -35 27 -33 78 -5 65 35 -4 14 -15 20
-35 20 -20 0 -31 -6 -35 -20z"/>
<path d="M4754 3486 c-12 -31 0 -51 31 -51 27 0 30 3 30 30 0 25 -4 30 -28 33
-17 2 -29 -2 -33 -12z"/>
<path d="M1214 3446 c-12 -31 0 -51 31 -51 27 0 30 3 30 30 0 25 -4 30 -28 33
-17 2 -29 -2 -33 -12z"/>
<path d="M203 3394 c-9 -24 10 -49 37 -49 31 0 48 28 31 49 -17 21 -60 21 -68
0z"/>
<path d="M3146 3289 c-33 -26 -56 -69 -56 -104 0 -40 29 -93 61 -112 16 -10
31 -29 34 -45 4 -15 22 -41 41 -58 95 -83 239 17 191 133 -8 18 -26 43 -41 54
-17 13 -26 31 -26 48 0 18 -13 40 -39 66 -35 35 -44 39 -88 39 -36 0 -58 -6
-77 -21z m148 -17 c16 -15 46 -71 46 -87 0 -3 -16 -5 -35 -5 -50 0 -89 -23
-109 -65 -9 -19 -21 -35 -26 -35 -4 0 -20 14 -34 31 -46 55 -27 146 37 175 38
16 93 10 121 -14z"/>
<path d="M2560 2965 c0 -218 1 -225 20 -225 19 0 20 7 20 225 0 218 -1 225
-20 225 -19 0 -20 -7 -20 -225z"/>
<path d="M1738 3078 l-3 -63 -62 -3 -63 -3 0 -44 c0 -49 -2 -48 80 -49 l45 -1
2 -55 c1 -30 2 -59 2 -64 1 -5 8 -3 16 4 10 9 15 9 15 1 0 -6 16 -11 36 -11
l36 0 -4 64 -4 64 61 -2 60 -1 0 49 0 50 -57 -3 -58 -2 0 65 0 66 -50 0 -49 0
-3 -62z m36 -59 c-3 -5 -10 -7 -15 -3 -5 3 -7 10 -3 15 3 5 10 7 15 3 5 -3 7
-10 3 -15z m-40 -60 c-3 -5 -10 -7 -15 -3 -5 3 -7 10 -3 15 3 5 10 7 15 3 5
-3 7 -10 3 -15z m36 -49 c0 -5 -4 -10 -10 -10 -5 0 -10 5 -10 10 0 6 5 10 10
10 6 0 10 -4 10 -10z"/>
<path d="M874 3065 c19 -50 17 -67 -10 -121 -20 -40 -32 -53 -43 -49 -57 22
-198 58 -266 67 -124 17 -331 5 -449 -26 -54 -14 -101 -28 -104 -31 -16 -15
14 -14 74 4 111 33 191 43 324 43 135 0 197 -9 331 -49 l86 -25 -1 -54 c0 -29
4 -58 9 -63 6 -6 30 -13 54 -17 42 -7 43 -6 32 14 -15 28 -14 72 2 72 7 0 55
-27 107 -61 160 -103 319 -279 404 -447 21 -41 25 -61 20 -87 -4 -23 -2 -35 5
-35 6 0 14 -1 19 -1 12 -3 30 -55 52 -156 27 -123 30 -339 6 -453 -20 -92 -47
-180 -55 -180 -3 0 -28 7 -55 15 -38 12 -51 12 -57 3 -12 -19 -3 -25 51 -38
45 -11 50 -15 44 -34 -4 -11 -8 -23 -10 -24 -1 -2 -44 8 -95 23 -65 18 -95 23
-102 16 -17 -17 0 -26 91 -51 80 -22 91 -31 73 -58 -7 -11 -32 -7 -134 22 -68
20 -127 36 -131 36 -3 0 -6 -8 -6 -18 0 -13 23 -23 111 -47 61 -17 115 -33
121 -36 32 -20 -198 -276 -321 -359 -136 -91 -295 -157 -450 -186 -162 -30
-398 -17 -544 32 -27 9 -51 13 -54 10 -10 -10 -1 -14 102 -41 123 -33 327 -44
455 -26 314 46 588 212 781 474 34 45 62 83 63 84 1 2 16 -1 33 -6 25 -7 33
-6 37 6 9 21 9 21 -23 28 -27 6 -29 8 -19 30 11 25 25 26 86 4 34 -13 62 -11
62 4 0 8 -26 22 -60 32 -64 19 -67 22 -47 48 11 15 20 14 112 -13 55 -16 101
-30 103 -30 1 0 2 8 2 18 0 15 -20 24 -99 47 l-98 28 18 58 c40 128 52 226 46
389 -4 125 -10 173 -31 248 -14 51 -26 102 -26 112 0 11 -10 35 -22 54 -13 19
-42 70 -66 114 -90 165 -257 335 -422 432 -39 23 -70 46 -70 51 0 6 9 24 21
40 23 33 35 94 25 133 -4 17 -15 28 -34 32 -15 3 -36 8 -46 11 -15 4 -18 1
-12 -12z"/>
<path d="M2680 2855 c0 -193 2 -225 15 -225 13 0 15 32 15 225 0 193 -2 225
-15 225 -13 0 -15 -32 -15 -225z"/>
<path d="M2790 2740 c0 -215 1 -231 18 -228 16 3 17 22 17 228 0 206 -1 225
-17 228 -17 3 -18 -13 -18 -228z"/>
<path d="M292 2708 c-28 -28 -1 -75 38 -63 14 4 20 15 20 35 0 36 -33 53 -58
28z"/>
<path d="M3532 2668 c-18 -18 -14 -46 7 -58 23 -12 47 -5 55 16 15 38 -34 70
-62 42z"/>
<path d="M3680 2575 c-23 -28 9 -72 45 -59 36 14 24 74 -15 74 -10 0 -23 -7
-30 -15z"/>
<path d="M3829 2484 c-17 -20 -1 -48 31 -52 30 -5 44 11 36 42 -7 30 -45 36
-67 10z"/>
<path d="M2090 2445 c-20 -24 0 -50 36 -50 26 0 29 4 29 30 0 25 -4 31 -26 33
-15 2 -31 -4 -39 -13z"/>
<path d="M4737 2222 c-26 -26 -47 -51 -47 -55 0 -12 93 -97 106 -97 6 0 14
-10 18 -22 4 -19 -8 -36 -61 -90 l-67 -68 54 -55 54 -55 48 47 c26 26 48 53
48 59 0 7 12 15 27 19 22 5 31 2 46 -19 10 -14 23 -26 28 -26 4 0 8 31 8 69
-1 56 -4 69 -15 64 -8 -3 -14 0 -14 6 0 6 7 11 15 11 12 0 15 17 15 97 l0 97
-35 -34 -35 -34 -68 67 c-37 37 -70 67 -73 67 -2 0 -26 -22 -52 -48z m138
-162 c3 -5 -1 -10 -9 -10 -9 0 -16 5 -16 10 0 6 4 10 9 10 6 0 13 -4 16 -10z
m36 -63 c-13 -13 -26 -3 -16 12 3 6 11 8 17 5 6 -4 6 -10 -1 -17z m-61 3 c0
-5 -4 -10 -10 -10 -5 0 -10 5 -10 10 0 6 5 10 10 10 6 0 10 -4 10 -10z m-40
-50 c0 -5 -2 -10 -4 -10 -3 0 -8 5 -11 10 -3 6 -1 10 4 10 6 0 11 -4 11 -10z
m65 0 c3 -5 -1 -10 -9 -10 -9 0 -16 5 -16 10 0 6 4 10 9 10 6 0 13 -4 16 -10z
m80 0 c3 -5 -1 -10 -9 -10 -9 0 -16 5 -16 10 0 6 4 10 9 10 6 0 13 -4 16 -10z
m-105 -60 c0 -5 -4 -10 -10 -10 -5 0 -10 5 -10 10 0 6 5 10 10 10 6 0 10 -4
10 -10z m140 0 c0 -5 -4 -10 -10 -10 -5 0 -10 5 -10 10 0 6 5 10 10 10 6 0 10
-4 10 -10z m-180 -60 c0 -5 -4 -10 -10 -10 -5 0 -10 5 -10 10 0 6 5 10 10 10
6 0 10 -4 10 -10z"/>
<path d="M1582 2201 c-8 -5 -12 -17 -10 -27 5 -26 51 -26 56 0 3 16 -12 36
-28 36 -3 0 -11 -4 -18 -9z"/>
<path d="M617 2109 c-26 -49 -47 -90 -47 -93 0 -2 6 -6 14 -9 10 -4 27 16 54
66 49 89 57 113 40 120 -9 3 -30 -27 -61 -84z"/>
<path d="M2782 2158 c-25 -25 -6 -68 30 -68 27 0 40 33 22 58 -17 25 -34 28
-52 10z"/>
<path d="M1705 2150 c-12 -20 6 -51 28 -48 31 4 31 52 0 56 -11 2 -24 -2 -28
-8z"/>
<path d="M4205 2034 c-19 -20 -16 -43 8 -58 37 -23 77 35 41 61 -23 17 -29 16
-49 -3z"/>
<path d="M1014 1966 c-10 -27 1 -51 25 -54 31 -5 45 11 37 42 -5 19 -13 26
-32 26 -13 0 -27 -6 -30 -14z"/>
<path d="M3280 1945 c-13 -15 -11 -19 14 -37 l27 -21 -27 -28 c-21 -22 -25
-32 -16 -41 9 -9 17 -6 37 12 21 20 27 21 42 9 10 -8 21 -18 25 -23 4 -6 13
-4 22 3 14 12 13 16 -11 37 l-27 23 23 25 c15 16 21 31 17 42 -6 15 -10 14
-36 -11 l-29 -28 -23 28 c-22 25 -25 26 -38 10z"/>
<path d="M212 1908 c-18 -18 -14 -46 7 -58 25 -13 48 -4 56 21 12 38 -35 65
-63 37z"/>
<path d="M2434 1752 c-37 -76 -58 -130 -52 -133 14 -9 1 -29 -15 -23 -10 4
-28 -27 -54 -93 -4 -10 38 -13 190 -13 l196 0 -97 195 c-53 107 -99 194 -102
194 -3 0 -33 -57 -66 -127z m56 28 c0 -5 -4 -10 -10 -10 -5 0 -10 5 -10 10 0
6 5 10 10 10 6 0 10 -4 10 -10z m-40 -60 c0 -5 -4 -10 -10 -10 -5 0 -10 5 -10
10 0 6 5 10 10 10 6 0 10 -4 10 -10z m80 0 c0 -5 -4 -10 -10 -10 -5 0 -10 5
-10 10 0 6 5 10 10 10 6 0 10 -4 10 -10z m-109 -63 c-13 -13 -26 -3 -16 12 3
6 11 8 17 5 6 -4 6 -10 -1 -17z m69 8 c0 -8 -4 -15 -10 -15 -5 0 -10 7 -10 15
0 8 5 15 10 15 6 0 10 -7 10 -15z m80 -6 c0 -5 -4 -9 -10 -9 -5 0 -10 7 -10
16 0 8 5 12 10 9 6 -3 10 -10 10 -16z m-120 -54 c0 -8 -4 -15 -10 -15 -5 0
-10 7 -10 15 0 8 5 15 10 15 6 0 10 -7 10 -15z m80 6 c0 -6 -4 -13 -10 -16 -5
-3 -10 1 -10 9 0 9 5 16 10 16 6 0 10 -4 10 -9z m60 -6 c0 -8 -4 -15 -10 -15
-5 0 -10 7 -10 15 0 8 5 15 10 15 6 0 10 -7 10 -15z"/>
<path d="M557 1463 c-36 -6 -92 -62 -100 -101 -14 -71 24 -127 118 -172 57
-28 102 -21 143 21 39 40 48 88 26 131 -20 41 -97 118 -117 118 -9 0 -21 2
-29 3 -7 2 -26 2 -41 0z m78 -28 l30 -13 -30 -1 c-37 -1 -88 -32 -111 -66 -12
-18 -15 -38 -11 -73 l5 -47 -19 23 c-45 56 -28 145 34 176 39 19 63 19 102 1z"/>
<path d="M3663 1356 c-37 -17 -63 -61 -63 -107 0 -22 10 -41 34 -65 28 -28 42
-34 76 -34 34 0 48 6 76 34 87 87 -10 222 -123 172z m108 -35 c74 -74 -1 -186
-98 -146 -62 26 -74 106 -22 149 41 35 83 34 120 -3z"/>
<path d="M257 1289 c-32 -18 -14 -69 25 -69 19 0 38 28 31 48 -8 20 -37 31
-56 21z"/>
<path d="M2904 1176 c-12 -31 0 -51 31 -51 27 0 30 3 30 30 0 25 -4 30 -28 33
-17 2 -29 -2 -33 -12z"/>
<path d="M1816 1144 c-19 -18 -19 -20 -6 -45 12 -21 40 -25 58 -7 18 18 14 46
-7 58 -25 13 -27 13 -45 -6z"/>
<path d="M4173 983 c-22 -8 -16 -61 7 -68 39 -12 66 35 38 63 -13 13 -24 14
-45 5z"/>
<path d="M4856 922 c-9 -17 -13 -38 -10 -46 4 -10 1 -16 -10 -16 -9 0 -19 -12
-22 -27 -4 -16 -15 -35 -26 -44 -10 -9 -18 -22 -18 -28 0 -6 -20 -52 -45 -101
-25 -49 -45 -94 -45 -100 0 -6 58 -10 160 -10 l160 0 0 76 c0 57 -5 84 -19
108 -10 17 -22 41 -26 54 -5 18 -2 22 14 22 11 0 23 5 27 12 5 8 -3 10 -28 5
-34 -5 -35 -5 -65 60 l-31 65 -16 -30z m24 -113 c0 -5 -7 -9 -15 -9 -15 0 -20
12 -9 23 8 8 24 -1 24 -14z m-30 -49 c0 -5 -4 -10 -10 -10 -5 0 -10 5 -10 10
0 6 5 10 10 10 6 0 10 -4 10 -10z m70 0 c0 -5 -7 -10 -15 -10 -8 0 -15 5 -15
10 0 6 7 10 15 10 8 0 15 -4 15 -10z m-110 -60 c0 -5 -4 -10 -10 -10 -5 0 -10
5 -10 10 0 6 5 10 10 10 6 0 10 -4 10 -10z m70 0 c0 -5 -7 -10 -15 -10 -8 0
-15 5 -15 10 0 6 7 10 15 10 8 0 15 -4 15 -10z m75 0 c3 -5 -1 -10 -9 -10 -9
0 -16 5 -16 10 0 6 4 10 9 10 6 0 13 -4 16 -10z m-185 -50 c0 -5 -4 -10 -10
-10 -5 0 -10 5 -10 10 0 6 5 10 10 10 6 0 10 -4 10 -10z m80 0 c0 -5 -4 -10
-10 -10 -5 0 -10 5 -10 10 0 6 5 10 10 10 6 0 10 -4 10 -10z m65 0 c3 -5 -1
-10 -10 -10 -9 0 -13 5 -10 10 3 6 8 10 10 10 2 0 7 -4 10 -10z"/>
<path d="M3305 906 c-86 -37 -131 -115 -123 -211 4 -42 12 -64 35 -93 36 -44
96 -88 101 -73 5 15 33 14 30 -1 -5 -25 62 -20 118 7 46 23 54 30 48 47 -5 16
-3 20 9 15 22 -8 43 19 28 36 -13 17 -4 28 17 20 12 -5 14 -1 9 25 -4 18 -2
32 3 32 26 0 -21 119 -62 157 -53 49 -149 67 -213 39z m76 -99 c-13 -13 -26
-3 -16 12 3 6 11 8 17 5 6 -4 6 -10 -1 -17z m69 2 c0 -5 -4 -9 -10 -9 -5 0
-10 7 -10 16 0 8 5 12 10 9 6 -3 10 -10 10 -16z m80 0 c0 -5 -4 -9 -10 -9 -5
0 -10 7 -10 16 0 8 5 12 10 9 6 -3 10 -10 10 -16z m-185 -49 c3 -5 -1 -10 -9
-10 -9 0 -16 5 -16 10 0 6 4 10 9 10 6 0 13 -4 16 -10z m75 0 c0 -5 -4 -10
-10 -10 -5 0 -10 5 -10 10 0 6 5 10 10 10 6 0 10 -4 10 -10z m70 0 c0 -5 -4
-10 -10 -10 -5 0 -10 5 -10 10 0 6 5 10 10 10 6 0 10 -4 10 -10z m80 0 c0 -5
-7 -10 -16 -10 -8 0 -12 5 -9 10 3 6 10 10 16 10 5 0 9 -4 9 -10z m-260 -60
c0 -5 -7 -10 -15 -10 -8 0 -15 5 -15 10 0 6 7 10 15 10 8 0 15 -4 15 -10z m80
0 c0 -5 -7 -10 -15 -10 -8 0 -15 5 -15 10 0 6 7 10 15 10 8 0 15 -4 15 -10z
m60 0 c0 -5 -4 -10 -10 -10 -5 0 -10 5 -10 10 0 6 5 10 10 10 6 0 10 -4 10
-10z m80 0 c0 -5 -4 -10 -10 -10 -5 0 -10 5 -10 10 0 6 5 10 10 10 6 0 10 -4
10 -10z m-250 -55 c0 -8 -4 -15 -10 -15 -5 0 -10 7 -10 15 0 8 5 15 10 15 6 0
10 -7 10 -15z m61 -8 c-13 -13 -26 -3 -16 12 3 6 11 8 17 5 6 -4 6 -10 -1 -17z
m80 0 c-13 -13 -26 -3 -16 12 3 6 11 8 17 5 6 -4 6 -10 -1 -17z m69 2 c0 -5
-4 -9 -10 -9 -5 0 -10 7 -10 16 0 8 5 12 10 9 6 -3 10 -10 10 -16z m-185 -49
c3 -5 -1 -10 -9 -10 -9 0 -16 5 -16 10 0 6 4 10 9 10 6 0 13 -4 16 -10z m80 0
c3 -5 -1 -10 -9 -10 -9 0 -16 5 -16 10 0 6 4 10 9 10 6 0 13 -4 16 -10z m65 0
c0 -5 -4 -10 -10 -10 -5 0 -10 5 -10 10 0 6 5 10 10 10 6 0 10 -4 10 -10z
m-30 -60 c0 -5 -4 -10 -10 -10 -5 0 -10 5 -10 10 0 6 5 10 10 10 6 0 10 -4 10
-10z"/>
<path d="M4656 721 c-106 -54 -198 -123 -287 -211 -70 -70 -162 -183 -171
-212 -3 -8 -16 -3 -40 15 -68 52 -139 56 -156 8 -6 -14 -13 -33 -17 -42 -5
-14 1 -16 42 -12 43 4 52 1 86 -27 25 -22 35 -36 29 -44 -18 -23 -74 -175 -69
-188 4 -9 8 -6 12 8 4 11 21 54 39 95 26 59 36 73 51 71 119 -18 118 -19 144
51 9 24 8 24 -32 20 -28 -3 -49 1 -62 10 -19 15 -19 17 27 84 95 138 322 328
452 378 25 10 46 22 46 26 0 15 -17 10 -94 -30z"/>
<path d="M1204 705 c-4 -9 0 -23 8 -31 20 -20 50 -7 46 20 -4 26 -45 35 -54
11z"/>
<path d="M1217 573 c-13 -12 -7 -41 10 -47 21 -8 48 17 40 38 -6 16 -38 22
-50 9z"/>
<path d="M1682 483 c-13 -26 -4 -43 24 -43 29 0 41 24 24 45 -17 20 -37 19
-48 -2z"/>
<path d="M1213 424 c-7 -20 22 -45 43 -37 8 3 14 16 14 29 0 19 -5 24 -25 24
-15 0 -28 -7 -32 -16z"/>
<path d="M257 363 c-18 -33 -47 -48 -123 -62 -70 -13 -98 -28 -118 -61 -15
-27 -15 -31 1 -64 19 -41 29 -45 38 -16 8 26 47 46 118 59 87 16 137 47 137
85 -1 12 -9 36 -19 55 l-18 35 -16 -31z"/>
<path d="M740 369 c-14 -26 3 -49 36 -49 28 0 38 14 30 46 -8 31 -50 33 -66 3z"/>
<path d="M2630 220 l0 -100 -100 0 -100 0 0 -44 c0 -26 5 -46 13 -49 9 -4 8
-8 -3 -16 -11 -8 64 -11 263 -11 l277 0 0 60 0 60 -95 0 -95 0 0 100 0 100
-80 0 -80 0 0 -100z m80 -30 c0 -5 -4 -10 -10 -10 -5 0 -10 5 -10 10 0 6 5 10
10 10 6 0 10 -4 10 -10z m-40 -60 c0 -5 -4 -10 -10 -10 -5 0 -10 5 -10 10 0 6
5 10 10 10 6 0 10 -4 10 -10z m-100 -50 c0 -5 -4 -10 -10 -10 -5 0 -10 5 -10
10 0 6 5 10 10 10 6 0 10 -4 10 -10z m60 0 c0 -5 -4 -10 -10 -10 -5 0 -10 5
-10 10 0 6 5 10 10 10 6 0 10 -4 10 -10z m80 0 c0 -5 -4 -10 -10 -10 -5 0 -10
5 -10 10 0 6 5 10 10 10 6 0 10 -4 10 -10z m-180 -60 c0 -5 -4 -10 -10 -10 -5
0 -10 5 -10 10 0 6 5 10 10 10 6 0 10 -4 10 -10z m60 0 c0 -5 -4 -10 -10 -10
-5 0 -10 5 -10 10 0 6 5 10 10 10 6 0 10 -4 10 -10z m80 0 c0 -5 -4 -10 -10
-10 -5 0 -10 5 -10 10 0 6 5 10 10 10 6 0 10 -4 10 -10z m65 0 c-3 -5 -10 -10
-16 -10 -5 0 -9 5 -9 10 0 6 7 10 16 10 8 0 12 -4 9 -10z m75 0 c0 -5 -4 -10
-10 -10 -5 0 -10 5 -10 10 0 6 5 10 10 10 6 0 10 -4 10 -10z m70 0 c0 -5 -4
-10 -10 -10 -5 0 -10 5 -10 10 0 6 5 10 10 10 6 0 10 -4 10 -10z"/>
<path d="M4700 285 c-26 -31 13 -82 44 -56 19 16 21 42 4 59 -16 16 -33 15
-48 -3z"/>
<path d="M3495 197 c-10 -8 -16 -23 -13 -38 2 -19 9 -24 33 -24 25 0 31 4 33
27 4 34 -26 54 -53 35z"/>
<path d="M1710 155 c-24 -29 8 -75 44 -62 30 12 14 77 -20 77 -6 0 -17 -7 -24
-15z"/>
</g>
</svg>
